<mxfile>
    <diagram id="3Q-54OwIezaDp710PV26" name="起動時の処理">
        <mxGraphModel dx="2050" dy="1068" grid="1" gridSize="10" guides="1" tooltips="1" connect="1" arrows="1" fold="1" page="1" pageScale="1" pageWidth="827" pageHeight="1169" background="#F1FAEE" math="0" shadow="0">
            <root>
                <mxCell id="0"/>
                <mxCell id="1" parent="0"/>
                <mxCell id="3" value="LaF 起動" style="ellipse;whiteSpace=wrap;html=1;fillColor=#A8DADC;strokeColor=#457B9D;fontColor=#1D3557;rounded=1;" parent="1" vertex="1">
                    <mxGeometry x="40" y="120" width="120" height="60" as="geometry"/>
                </mxCell>
                <mxCell id="4" value="" style="endArrow=classic;html=1;strokeColor=#457B9D;fontColor=#1D3557;labelBackgroundColor=#F1FAEE;" parent="1" edge="1">
                    <mxGeometry width="50" height="50" relative="1" as="geometry">
                        <mxPoint x="100" y="180" as="sourcePoint"/>
                        <mxPoint x="100" y="240" as="targetPoint"/>
                    </mxGeometry>
                </mxCell>
                <mxCell id="5" value="最低限の&lt;br&gt;ライブラリをロード" style="whiteSpace=wrap;html=1;fillColor=#A8DADC;strokeColor=#457B9D;fontColor=#1D3557;rounded=1;" parent="1" vertex="1">
                    <mxGeometry x="40" y="240" width="120" height="60" as="geometry"/>
                </mxCell>
                <mxCell id="6" value="" style="endArrow=classic;html=1;exitX=0.5;exitY=1;exitDx=0;exitDy=0;strokeColor=#457B9D;fontColor=#1D3557;labelBackgroundColor=#F1FAEE;" parent="1" source="5" edge="1">
                    <mxGeometry width="50" height="50" relative="1" as="geometry">
                        <mxPoint x="140" y="410" as="sourcePoint"/>
                        <mxPoint x="100" y="360" as="targetPoint"/>
                    </mxGeometry>
                </mxCell>
                <mxCell id="7" value="スプラッシュ&lt;br&gt;スクリーン表示" style="whiteSpace=wrap;html=1;fillColor=#A8DADC;strokeColor=#457B9D;fontColor=#1D3557;rounded=1;" parent="1" vertex="1">
                    <mxGeometry x="40" y="360" width="120" height="60" as="geometry"/>
                </mxCell>
                <mxCell id="8" value="" style="endArrow=classic;html=1;exitX=0.5;exitY=1;exitDx=0;exitDy=0;strokeColor=#457B9D;fontColor=#1D3557;labelBackgroundColor=#F1FAEE;" parent="1" source="7" edge="1">
                    <mxGeometry width="50" height="50" relative="1" as="geometry">
                        <mxPoint x="100" y="530" as="sourcePoint"/>
                        <mxPoint x="100" y="480" as="targetPoint"/>
                    </mxGeometry>
                </mxCell>
                <mxCell id="9" value="初回起動？" style="rhombus;whiteSpace=wrap;html=1;fillColor=#A8DADC;strokeColor=#457B9D;fontColor=#1D3557;rounded=1;" parent="1" vertex="1">
                    <mxGeometry x="40" y="480" width="120" height="60" as="geometry"/>
                </mxCell>
                <mxCell id="10" value="" style="endArrow=classic;html=1;strokeColor=#457B9D;fontColor=#1D3557;labelBackgroundColor=#F1FAEE;" parent="1" edge="1">
                    <mxGeometry relative="1" as="geometry">
                        <mxPoint x="160" y="509.65999999999997" as="sourcePoint"/>
                        <mxPoint x="220" y="510" as="targetPoint"/>
                    </mxGeometry>
                </mxCell>
                <mxCell id="11" value="True" style="edgeLabel;resizable=0;html=1;align=center;verticalAlign=middle;fontColor=#1D3557;labelBackgroundColor=#F1FAEE;rounded=1;" parent="10" connectable="0" vertex="1">
                    <mxGeometry relative="1" as="geometry">
                        <mxPoint as="offset"/>
                    </mxGeometry>
                </mxCell>
                <mxCell id="12" value="" style="endArrow=classic;html=1;exitX=0.5;exitY=1;exitDx=0;exitDy=0;strokeColor=#457B9D;fontColor=#1D3557;labelBackgroundColor=#F1FAEE;" parent="1" source="9" edge="1">
                    <mxGeometry relative="1" as="geometry">
                        <mxPoint x="120" y="610" as="sourcePoint"/>
                        <mxPoint x="100" y="600" as="targetPoint"/>
                    </mxGeometry>
                </mxCell>
                <mxCell id="13" value="False" style="edgeLabel;resizable=0;html=1;align=center;verticalAlign=middle;fontColor=#1D3557;labelBackgroundColor=#F1FAEE;rounded=1;" parent="12" connectable="0" vertex="1">
                    <mxGeometry relative="1" as="geometry"/>
                </mxCell>
                <mxCell id="15" value="初期設定" style="whiteSpace=wrap;html=1;fillColor=#A8DADC;strokeColor=#457B9D;fontColor=#1D3557;rounded=1;" parent="1" vertex="1">
                    <mxGeometry x="220" y="480" width="120" height="60" as="geometry"/>
                </mxCell>
                <mxCell id="24" value="" style="endArrow=classic;html=1;exitX=0.5;exitY=0;exitDx=0;exitDy=0;entryX=1.029;entryY=0.597;entryDx=0;entryDy=0;entryPerimeter=0;strokeColor=#457B9D;fontColor=#1D3557;labelBackgroundColor=#F1FAEE;" parent="1" source="15" target="3" edge="1">
                    <mxGeometry relative="1" as="geometry">
                        <mxPoint x="220" y="390" as="sourcePoint"/>
                        <mxPoint x="320" y="390" as="targetPoint"/>
                        <Array as="points">
                            <mxPoint x="280" y="156"/>
                        </Array>
                    </mxGeometry>
                </mxCell>
                <mxCell id="26" value="再起動" style="edgeLabel;html=1;align=center;verticalAlign=middle;resizable=0;points=[];fontColor=#1D3557;labelBackgroundColor=#F1FAEE;rounded=1;" parent="24" vertex="1" connectable="0">
                    <mxGeometry x="-0.0087" y="2" relative="1" as="geometry">
                        <mxPoint x="2" y="58" as="offset"/>
                    </mxGeometry>
                </mxCell>
                <mxCell id="33" style="edgeStyle=orthogonalEdgeStyle;orthogonalLoop=1;jettySize=auto;html=1;strokeColor=#457B9D;fontColor=#1D3557;labelBackgroundColor=#F1FAEE;" parent="1" source="27" target="30" edge="1">
                    <mxGeometry relative="1" as="geometry"/>
                </mxCell>
                <mxCell id="27" value="ライブラリ全ロード" style="whiteSpace=wrap;html=1;fillColor=#A8DADC;strokeColor=#457B9D;fontColor=#1D3557;rounded=1;" parent="1" vertex="1">
                    <mxGeometry x="40" y="600" width="120" height="60" as="geometry"/>
                </mxCell>
                <mxCell id="30" value="DiscordRPC&lt;br&gt;接続確認" style="rhombus;whiteSpace=wrap;html=1;fillColor=#A8DADC;strokeColor=#457B9D;fontColor=#1D3557;rounded=1;" parent="1" vertex="1">
                    <mxGeometry x="40" y="720" width="120" height="60" as="geometry"/>
                </mxCell>
                <mxCell id="35" value="" style="endArrow=classic;html=1;strokeColor=#457B9D;fontColor=#1D3557;labelBackgroundColor=#F1FAEE;" parent="1" edge="1">
                    <mxGeometry relative="1" as="geometry">
                        <mxPoint x="160" y="749.76" as="sourcePoint"/>
                        <mxPoint x="220" y="749.76" as="targetPoint"/>
                    </mxGeometry>
                </mxCell>
                <mxCell id="36" value="エラー" style="edgeLabel;resizable=0;html=1;align=center;verticalAlign=middle;fontColor=#1D3557;labelBackgroundColor=#F1FAEE;rounded=1;" parent="35" connectable="0" vertex="1">
                    <mxGeometry relative="1" as="geometry">
                        <mxPoint as="offset"/>
                    </mxGeometry>
                </mxCell>
                <mxCell id="38" value="エラー表示&lt;br&gt;RPC無効化" style="whiteSpace=wrap;html=1;fillColor=#A8DADC;strokeColor=#457B9D;fontColor=#1D3557;rounded=1;" parent="1" vertex="1">
                    <mxGeometry x="220" y="720" width="120" height="60" as="geometry"/>
                </mxCell>
                <mxCell id="39" value="" style="endArrow=classic;html=1;exitX=0.5;exitY=1;exitDx=0;exitDy=0;strokeColor=#457B9D;fontColor=#1D3557;labelBackgroundColor=#F1FAEE;" parent="1" source="30" edge="1">
                    <mxGeometry relative="1" as="geometry">
                        <mxPoint x="100" y="830" as="sourcePoint"/>
                        <mxPoint x="100" y="840" as="targetPoint"/>
                    </mxGeometry>
                </mxCell>
                <mxCell id="40" value="OK" style="edgeLabel;resizable=0;html=1;align=center;verticalAlign=middle;fontColor=#1D3557;labelBackgroundColor=#F1FAEE;rounded=1;" parent="39" connectable="0" vertex="1">
                    <mxGeometry relative="1" as="geometry"/>
                </mxCell>
                <mxCell id="41" value="リソスワ&lt;br&gt;存在確認" style="rhombus;whiteSpace=wrap;html=1;fillColor=#A8DADC;strokeColor=#457B9D;fontColor=#1D3557;rounded=1;" parent="1" vertex="1">
                    <mxGeometry x="40" y="840" width="120" height="60" as="geometry"/>
                </mxCell>
                <mxCell id="42" value="" style="endArrow=classic;html=1;strokeColor=#457B9D;fontColor=#1D3557;labelBackgroundColor=#F1FAEE;" parent="1" edge="1">
                    <mxGeometry relative="1" as="geometry">
                        <mxPoint x="160" y="870" as="sourcePoint"/>
                        <mxPoint x="220" y="870" as="targetPoint"/>
                        <Array as="points">
                            <mxPoint x="190" y="870"/>
                        </Array>
                    </mxGeometry>
                </mxCell>
                <mxCell id="43" value="無し" style="edgeLabel;resizable=0;html=1;align=center;verticalAlign=middle;fontColor=#1D3557;labelBackgroundColor=#F1FAEE;rounded=1;" parent="42" connectable="0" vertex="1">
                    <mxGeometry relative="1" as="geometry"/>
                </mxCell>
                <mxCell id="45" value="" style="endArrow=classic;html=1;exitX=0.5;exitY=1;exitDx=0;exitDy=0;strokeColor=#457B9D;fontColor=#1D3557;labelBackgroundColor=#F1FAEE;" parent="1" source="38" edge="1">
                    <mxGeometry width="50" height="50" relative="1" as="geometry">
                        <mxPoint x="230" y="860" as="sourcePoint"/>
                        <mxPoint x="110" y="820" as="targetPoint"/>
                        <Array as="points">
                            <mxPoint x="280" y="820"/>
                        </Array>
                    </mxGeometry>
                </mxCell>
                <mxCell id="46" value="フォルダ作成&lt;br&gt;(Document/LaFSwap)" style="whiteSpace=wrap;html=1;fillColor=#A8DADC;strokeColor=#457B9D;fontColor=#1D3557;rounded=1;" parent="1" vertex="1">
                    <mxGeometry x="220" y="840" width="120" height="60" as="geometry"/>
                </mxCell>
                <mxCell id="47" value="" style="endArrow=classic;html=1;exitX=0.5;exitY=1;exitDx=0;exitDy=0;strokeColor=#457B9D;fontColor=#1D3557;labelBackgroundColor=#F1FAEE;" parent="1" source="41" edge="1">
                    <mxGeometry relative="1" as="geometry">
                        <mxPoint x="90" y="950" as="sourcePoint"/>
                        <mxPoint x="100" y="960" as="targetPoint"/>
                    </mxGeometry>
                </mxCell>
                <mxCell id="48" value="あり" style="edgeLabel;resizable=0;html=1;align=center;verticalAlign=middle;fontColor=#1D3557;labelBackgroundColor=#F1FAEE;rounded=1;" parent="47" connectable="0" vertex="1">
                    <mxGeometry relative="1" as="geometry"/>
                </mxCell>
                <mxCell id="49" value="" style="endArrow=classic;html=1;exitX=0.5;exitY=1;exitDx=0;exitDy=0;strokeColor=#457B9D;fontColor=#1D3557;labelBackgroundColor=#F1FAEE;" parent="1" source="46" edge="1">
                    <mxGeometry width="50" height="50" relative="1" as="geometry">
                        <mxPoint x="290" y="910" as="sourcePoint"/>
                        <mxPoint x="110" y="940" as="targetPoint"/>
                        <Array as="points">
                            <mxPoint x="280" y="940"/>
                        </Array>
                    </mxGeometry>
                </mxCell>
                <mxCell id="50" value="リソスワ登録処理" style="rhombus;whiteSpace=wrap;html=1;fillColor=#A8DADC;strokeColor=#457B9D;fontColor=#1D3557;rounded=1;" parent="1" vertex="1">
                    <mxGeometry x="40" y="960" width="120" height="60" as="geometry"/>
                </mxCell>
                <mxCell id="51" value="エラー表示&lt;br&gt;リソスワ無効化" style="whiteSpace=wrap;html=1;fillColor=#A8DADC;strokeColor=#457B9D;fontColor=#1D3557;rounded=1;" parent="1" vertex="1">
                    <mxGeometry x="220" y="960" width="120" height="60" as="geometry"/>
                </mxCell>
                <mxCell id="54" value="" style="endArrow=classic;html=1;exitX=1;exitY=0.5;exitDx=0;exitDy=0;entryX=0;entryY=0.5;entryDx=0;entryDy=0;strokeColor=#457B9D;fontColor=#1D3557;labelBackgroundColor=#F1FAEE;" parent="1" source="50" target="51" edge="1">
                    <mxGeometry relative="1" as="geometry">
                        <mxPoint x="150" y="1040" as="sourcePoint"/>
                        <mxPoint x="250" y="1040" as="targetPoint"/>
                    </mxGeometry>
                </mxCell>
                <mxCell id="55" value="エラー" style="edgeLabel;resizable=0;html=1;align=center;verticalAlign=middle;fontColor=#1D3557;labelBackgroundColor=#F1FAEE;rounded=1;" parent="54" connectable="0" vertex="1">
                    <mxGeometry relative="1" as="geometry"/>
                </mxCell>
                <mxCell id="56" value="&lt;h1&gt;ライブラリの扱いについて&lt;/h1&gt;&lt;p&gt;起動して最初に読み込むのは、v8-compile-cacheとスプラッシュスクリーンの表示とその処理に必要なライブラリ(fs, electronの一部、言語関係)のみ。&lt;br&gt;初期設定がされていない場合はelectron-storeも読み込み、初期設定へ。&lt;br&gt;その後必要なものを最初に全てrequireしてしまう(後々の軽量化のため)&lt;/p&gt;" style="text;html=1;spacing=5;spacingTop=-20;whiteSpace=wrap;overflow=hidden;glass=0;shadow=0;fontColor=#1D3557;rounded=1;" parent="1" vertex="1">
                    <mxGeometry x="360" y="210" width="440" height="120" as="geometry"/>
                </mxCell>
                <mxCell id="57" value="&lt;h1&gt;初期設定の項目&lt;/h1&gt;&lt;p&gt;言語、リソスワのオンオフ、RPCの有効/無効、セーフモード(最低限の構成で起動。できる限り読み込む機能を削る) クラッシュ時の自動ログ送信のオンオフ&lt;br&gt;起動時フラグの設定&lt;br&gt;&lt;br&gt;同じ項目をスプラッシュスクリーンから直接設定できるようにする(非常時のため)&lt;/p&gt;" style="text;html=1;spacing=5;spacingTop=-20;whiteSpace=wrap;overflow=hidden;fontColor=#1D3557;rounded=1;" parent="1" vertex="1">
                    <mxGeometry x="360" y="450" width="440" height="140" as="geometry"/>
                </mxCell>
                <mxCell id="58" value="" style="endArrow=classic;html=1;exitX=0.5;exitY=1;exitDx=0;exitDy=0;strokeColor=#457B9D;fontColor=#1D3557;labelBackgroundColor=#F1FAEE;" parent="1" source="51" edge="1">
                    <mxGeometry width="50" height="50" relative="1" as="geometry">
                        <mxPoint x="250" y="1130" as="sourcePoint"/>
                        <mxPoint x="110" y="1060" as="targetPoint"/>
                        <Array as="points">
                            <mxPoint x="280" y="1060"/>
                        </Array>
                    </mxGeometry>
                </mxCell>
                <mxCell id="59" value="LaF 2.0 起動処理" style="text;html=1;fontSize=30;fontStyle=1;verticalAlign=middle;align=center;fillColor=#A8DADC;strokeColor=#457B9D;fontColor=#1D3557;rounded=1;" parent="1" vertex="1">
                    <mxGeometry x="40" y="40" width="480" height="60" as="geometry"/>
                </mxCell>
                <mxCell id="67" value="ゲームウィンドウ&lt;br&gt;初期化処理へ" style="whiteSpace=wrap;html=1;shadow=0;glass=0;fontSize=12;strokeColor=#457B9D;fillColor=#A8DADC;fontColor=#1D3557;rounded=1;" parent="1" vertex="1">
                    <mxGeometry x="40" y="1080" width="120" height="60" as="geometry"/>
                </mxCell>
                <mxCell id="68" value="" style="endArrow=classic;html=1;exitX=0.5;exitY=1;exitDx=0;exitDy=0;strokeColor=#457B9D;fontColor=#1D3557;labelBackgroundColor=#F1FAEE;" parent="1" edge="1">
                    <mxGeometry relative="1" as="geometry">
                        <mxPoint x="99.58" y="1020" as="sourcePoint"/>
                        <mxPoint x="99.58" y="1080" as="targetPoint"/>
                    </mxGeometry>
                </mxCell>
                <mxCell id="69" value="OK" style="edgeLabel;resizable=0;html=1;align=center;verticalAlign=middle;fontColor=#1D3557;labelBackgroundColor=#F1FAEE;rounded=1;" parent="68" connectable="0" vertex="1">
                    <mxGeometry relative="1" as="geometry"/>
                </mxCell>
            </root>
        </mxGraphModel>
    </diagram>
    <diagram id="1mRGZSPDkBKVDlU2-Lnn" name="GameWindow初期化処理">
        &#xa;
        <mxGraphModel dx="2050" dy="1600" grid="1" gridSize="10" guides="1" tooltips="1" connect="1" arrows="1" fold="1" page="1" pageScale="1" pageWidth="827" pageHeight="1169" math="0" shadow="0">
            &#xa;
            <root>
                &#xa;
                <mxCell id="e7npU0ufxKGV9_5bbCFn-0"/>
                &#xa;
                <mxCell id="e7npU0ufxKGV9_5bbCFn-1" parent="e7npU0ufxKGV9_5bbCFn-0"/>
                &#xa;
                <mxCell id="xwVPuFm0QnsqbeIYkNWe-0" value="GameWindow初期化処理" style="text;html=1;fontSize=30;fontStyle=1;verticalAlign=middle;align=center;fillColor=#60a917;strokeColor=#2D7600;fontColor=#ffffff;" vertex="1" parent="e7npU0ufxKGV9_5bbCFn-1">
                    &#xa;
                    <mxGeometry x="40" y="40" width="480" height="60" as="geometry"/>
                    &#xa;
                </mxCell>
                &#xa;
            </root>
            &#xa;
        </mxGraphModel>
        &#xa;
    </diagram>
</mxfile>